<svg width="76" height="36" viewBox="0 0 76 36" fill="none" xmlns="http://www.w3.org/2000/svg">
<path d="M12.0198 18.05C11.9998 18.37 12.1098 18.69 12.3498 18.93L18.0398 24.66C18.4898 25.12 19.2298 25.12 19.6898 24.66C20.1398 24.2 20.1398 23.46 19.6898 23.01L15.8698 19.17L23.6698 19.17C24.3098 19.17 24.8398 18.65 24.8398 18C24.8398 17.35 24.3198 16.83 23.6698 16.83L15.8598 16.83L19.6798 12.99C20.1298 12.53 20.1298 11.8 19.6798 11.34C19.2198 10.88 18.4798 10.88 18.0298 11.34L12.3398 17.06C12.0998 17.3 11.9898 17.62 12.0098 17.94C12.0098 17.96 11.9998 17.98 11.9998 18C11.9998 18.02 11.9998 18.04 11.9998 18.05" fill="#050505"/>
<path d="M37.543 18.3447H35.0205L35.0068 17.2852H37.2969C37.6751 17.2852 38.0055 17.2214 38.2881 17.0938C38.5706 16.9661 38.7894 16.7839 38.9443 16.5469C39.1038 16.3053 39.1836 16.0182 39.1836 15.6855C39.1836 15.321 39.113 15.0247 38.9717 14.7969C38.835 14.5645 38.623 14.3958 38.3359 14.291C38.0534 14.1816 37.6934 14.127 37.2559 14.127H35.3145V23H33.9951V13.0469H37.2559C37.7663 13.0469 38.222 13.0993 38.623 13.2041C39.0241 13.3044 39.3636 13.4639 39.6416 13.6826C39.9242 13.8968 40.1383 14.1702 40.2842 14.5029C40.43 14.8356 40.5029 15.2344 40.5029 15.6992C40.5029 16.1094 40.3981 16.4808 40.1885 16.8135C39.9788 17.1416 39.6872 17.4105 39.3135 17.6201C38.9443 17.8298 38.5114 17.9642 38.0146 18.0234L37.543 18.3447ZM37.4814 23H34.501L35.2461 21.9268H37.4814C37.9007 21.9268 38.2562 21.8538 38.5479 21.708C38.8441 21.5622 39.0697 21.3571 39.2246 21.0928C39.3796 20.8239 39.457 20.5072 39.457 20.1426C39.457 19.7734 39.391 19.4544 39.2588 19.1855C39.1266 18.9167 38.9193 18.7093 38.6367 18.5635C38.3542 18.4176 37.9896 18.3447 37.543 18.3447H35.6631L35.6768 17.2852H38.2471L38.5273 17.668C39.0059 17.709 39.4115 17.8457 39.7441 18.0781C40.0768 18.306 40.3298 18.5977 40.5029 18.9531C40.6807 19.3086 40.7695 19.7005 40.7695 20.1289C40.7695 20.7487 40.6328 21.2728 40.3594 21.7012C40.0905 22.125 39.71 22.4486 39.2178 22.6719C38.7256 22.8906 38.1468 23 37.4814 23ZM46.8877 21.7354V17.9277C46.8877 17.6361 46.8285 17.3831 46.71 17.1689C46.596 16.9502 46.4229 16.7816 46.1904 16.6631C45.958 16.5446 45.6709 16.4854 45.3291 16.4854C45.0101 16.4854 44.7298 16.54 44.4883 16.6494C44.2513 16.7588 44.0645 16.9023 43.9277 17.0801C43.7956 17.2578 43.7295 17.4492 43.7295 17.6543H42.4648C42.4648 17.39 42.5332 17.1279 42.6699 16.8682C42.8066 16.6084 43.0026 16.3737 43.2578 16.1641C43.5176 15.9499 43.8275 15.7812 44.1875 15.6582C44.5521 15.5306 44.9577 15.4668 45.4043 15.4668C45.9421 15.4668 46.416 15.5579 46.8262 15.7402C47.2409 15.9225 47.5645 16.1982 47.7969 16.5674C48.0339 16.932 48.1523 17.39 48.1523 17.9414V21.3867C48.1523 21.6328 48.1729 21.8949 48.2139 22.1729C48.2594 22.4508 48.3255 22.6901 48.4121 22.8906V23H47.0928C47.029 22.8542 46.9788 22.6605 46.9424 22.4189C46.9059 22.1729 46.8877 21.945 46.8877 21.7354ZM47.1064 18.5156L47.1201 19.4043H45.8418C45.4818 19.4043 45.1605 19.4339 44.8779 19.4932C44.5954 19.5479 44.3584 19.6322 44.167 19.7461C43.9756 19.86 43.8298 20.0036 43.7295 20.1768C43.6292 20.3454 43.5791 20.5436 43.5791 20.7715C43.5791 21.0039 43.6315 21.2158 43.7363 21.4072C43.8411 21.5986 43.9984 21.7513 44.208 21.8652C44.4222 21.9746 44.6842 22.0293 44.9941 22.0293C45.3815 22.0293 45.7233 21.9473 46.0195 21.7832C46.3158 21.6191 46.5505 21.4186 46.7236 21.1816C46.9014 20.9447 46.9971 20.7145 47.0107 20.4912L47.5508 21.0996C47.5189 21.291 47.4323 21.5029 47.291 21.7354C47.1497 21.9678 46.9606 22.1911 46.7236 22.4053C46.4912 22.6149 46.2132 22.7904 45.8896 22.9316C45.5706 23.0684 45.2106 23.1367 44.8096 23.1367C44.3083 23.1367 43.8685 23.0387 43.4902 22.8428C43.1165 22.6468 42.8249 22.3848 42.6152 22.0566C42.4102 21.724 42.3076 21.3525 42.3076 20.9424C42.3076 20.5459 42.3851 20.1973 42.54 19.8965C42.695 19.5911 42.9183 19.3382 43.21 19.1377C43.5016 18.9326 43.8525 18.7777 44.2627 18.6729C44.6729 18.568 45.1309 18.5156 45.6367 18.5156H47.1064ZM53.1016 22.0977C53.4023 22.0977 53.6803 22.0361 53.9355 21.9131C54.1908 21.79 54.4004 21.6214 54.5645 21.4072C54.7285 21.1885 54.8219 20.9401 54.8447 20.6621H56.0479C56.0251 21.0996 55.877 21.5075 55.6035 21.8857C55.3346 22.2594 54.9814 22.5625 54.5439 22.7949C54.1064 23.0228 53.6257 23.1367 53.1016 23.1367C52.5456 23.1367 52.0602 23.0387 51.6455 22.8428C51.2354 22.6468 50.8936 22.3779 50.6201 22.0361C50.3512 21.6943 50.1484 21.3024 50.0117 20.8604C49.8796 20.4137 49.8135 19.9421 49.8135 19.4453V19.1582C49.8135 18.6615 49.8796 18.1921 50.0117 17.75C50.1484 17.3034 50.3512 16.9092 50.6201 16.5674C50.8936 16.2256 51.2354 15.9567 51.6455 15.7607C52.0602 15.5648 52.5456 15.4668 53.1016 15.4668C53.6803 15.4668 54.1862 15.5853 54.6191 15.8223C55.0521 16.0547 55.3916 16.3737 55.6377 16.7793C55.8883 17.1803 56.0251 17.6361 56.0479 18.1465H54.8447C54.8219 17.8411 54.7354 17.5654 54.585 17.3193C54.4391 17.0732 54.2386 16.8773 53.9834 16.7314C53.7327 16.5811 53.4388 16.5059 53.1016 16.5059C52.7142 16.5059 52.3883 16.5833 52.124 16.7383C51.8643 16.8887 51.6569 17.0938 51.502 17.3535C51.3516 17.6087 51.2422 17.8936 51.1738 18.208C51.11 18.5179 51.0781 18.8346 51.0781 19.1582V19.4453C51.0781 19.7689 51.11 20.0879 51.1738 20.4023C51.2376 20.7168 51.3447 21.0016 51.4951 21.2568C51.6501 21.512 51.8574 21.7171 52.1172 21.8721C52.3815 22.0225 52.7096 22.0977 53.1016 22.0977ZM58.7412 12.5V23H57.4697V12.5H58.7412ZM63.2598 15.6035L60.0332 19.0557L58.2285 20.9287L58.126 19.582L59.418 18.0371L61.7148 15.6035H63.2598ZM62.1045 23L59.4658 19.4727L60.1221 18.3447L63.5947 23H62.1045Z" fill="#050505"/>
</svg>
