<svg width="32" height="32" viewBox="0 0 32 32" fill="none" xmlns="http://www.w3.org/2000/svg">
<g clip-path="url(#clip0_694_865)">
<path d="M13.3938 16.6313C13.1563 16.525 12.8312 16.4688 12.4062 16.4625H9.96875V19.1H12.375C12.8063 19.1 13.1375 19.0438 13.375 18.925C13.8125 18.7063 14.025 18.3 14.025 17.6938C14.025 17.1813 13.8125 16.825 13.3938 16.6313Z" fill="black"/>
<path d="M21.5062 15.2813C21.1999 15.0188 20.8187 14.8875 20.3687 14.8875C19.8812 14.8875 19.4999 15.025 19.2249 15.3063C18.9562 15.5875 18.7874 15.9625 18.7124 16.4375H22.0062C21.9812 15.9313 21.8062 15.55 21.5062 15.2813Z" fill="black"/>
<path d="M13.4251 14.5812C13.6938 14.4187 13.8251 14.125 13.8251 13.7125C13.8251 13.25 13.6501 12.95 13.2938 12.8C12.9876 12.7 12.6001 12.6437 12.1251 12.6437H9.9751V14.825H12.3751C12.8063 14.8312 13.1501 14.75 13.4251 14.5812Z" fill="black"/>
<path d="M0 0V32H32V0H0ZM18.225 11.3938H22.4625V12.625H18.225V11.3938ZM15.6687 19.4125C15.4812 19.7188 15.25 19.9813 14.9688 20.1875C14.6562 20.4312 14.2812 20.5938 13.85 20.6875C13.4188 20.775 12.9563 20.8188 12.45 20.8188H8V10.9312H12.7812C13.9875 10.95 14.8438 11.3 15.3438 11.9875C15.6438 12.4062 15.7937 12.9125 15.7937 13.5C15.7937 14.1 15.6437 14.5875 15.3375 14.9563C15.1687 15.1625 14.9125 15.35 14.5813 15.5188C15.0875 15.7063 15.4688 15.9937 15.725 16.3937C15.9813 16.7937 16.1125 17.275 16.1125 17.8438C16.1125 18.4188 15.9625 18.9438 15.6687 19.4125ZM24 17.7H18.675C18.7062 18.4313 18.9562 18.95 19.4375 19.2437C19.7313 19.425 20.0812 19.5187 20.4937 19.5187C20.925 19.5187 21.2812 19.4062 21.5562 19.1812C21.7062 19.0625 21.8375 18.8937 21.95 18.675H23.9C23.85 19.1062 23.6125 19.55 23.1938 20C22.5375 20.7125 21.625 21.0688 20.4438 21.0688C19.4688 21.0688 18.6125 20.7688 17.8687 20.1688C17.125 19.5688 16.75 18.5938 16.75 17.2437C16.75 15.975 17.0875 15.0063 17.7563 14.3313C18.4312 13.6562 19.3 13.3188 20.3687 13.3188C21.0063 13.3188 21.5812 13.4313 22.0875 13.6625C22.6 13.8875 23.0188 14.25 23.35 14.7437C23.65 15.175 23.8438 15.6813 23.9312 16.2563C23.9875 16.5875 24.0063 17.0688 24 17.7Z" fill="black"/>
</g>
<defs>
<clipPath id="clip0_694_865">
<rect width="32" height="32" fill="white"/>
</clipPath>
</defs>
</svg>
