<svg width="16" height="17" viewBox="0 0 16 17" fill="none" xmlns="http://www.w3.org/2000/svg">
<path fill-rule="evenodd" clip-rule="evenodd" d="M12 9.5H4C3.447 9.5 3 9.053 3 8.5C3 7.947 3.447 7.5 4 7.5H12C12.553 7.5 13 7.947 13 8.5C13 9.053 12.553 9.5 12 9.5ZM15.756 4.942L11.558 0.744C11.402 0.589 11.188 0.5 10.969 0.5H5.031C4.813 0.5 4.598 0.589 4.442 0.744L0.244 4.942C0.089 5.098 0 5.313 0 5.531V11.469C0 11.688 0.089 11.902 0.244 12.058L4.442 16.256C4.598 16.411 4.813 16.5 5.031 16.5H10.969C11.188 16.5 11.402 16.411 11.558 16.256L15.756 12.058C15.911 11.902 16 11.688 16 11.469V5.531C16 5.313 15.911 5.098 15.756 4.942Z" fill="#E41E3F"/>
</svg>
