<svg width="74" height="36" viewBox="0 0 74 36" fill="none" xmlns="http://www.w3.org/2000/svg">
<path d="M24.82 17.95C24.84 17.63 24.73 17.31 24.49 17.07L18.8 11.34C18.35 10.88 17.61 10.88 17.15 11.34C16.7 11.8 16.7 12.54 17.15 12.99L20.97 16.83H13.17C12.53 16.83 12 17.35 12 18C12 18.65 12.52 19.17 13.17 19.17H20.98L17.16 23.01C16.71 23.47 16.71 24.2 17.16 24.66C17.62 25.12 18.36 25.12 18.81 24.66L24.5 18.94C24.74 18.7 24.85 18.38 24.83 18.06C24.83 18.04 24.84 18.02 24.84 18C24.84 17.98 24.84 17.96 24.84 17.95" fill="#050505"/>
<path d="M41.6514 13.0469V23H40.3252L35.3145 15.3232V23H33.9951V13.0469H35.3145L40.3457 20.7441V13.0469H41.6514ZM46.8672 23.1367C46.3522 23.1367 45.8851 23.0501 45.4658 22.877C45.0511 22.6992 44.6934 22.4508 44.3926 22.1318C44.0964 21.8128 43.8685 21.4346 43.709 20.9971C43.5495 20.5596 43.4697 20.0811 43.4697 19.5615V19.2744C43.4697 18.6729 43.5586 18.1374 43.7363 17.668C43.9141 17.194 44.1556 16.793 44.4609 16.4648C44.7663 16.1367 45.1126 15.8883 45.5 15.7197C45.8874 15.5511 46.2884 15.4668 46.7031 15.4668C47.2318 15.4668 47.6875 15.5579 48.0703 15.7402C48.4577 15.9225 48.7744 16.1777 49.0205 16.5059C49.2666 16.8294 49.4489 17.2122 49.5674 17.6543C49.6859 18.0918 49.7451 18.5703 49.7451 19.0898V19.6572H44.2217V18.625H48.4805V18.5293C48.4622 18.2012 48.3939 17.8822 48.2754 17.5723C48.1615 17.2624 47.9792 17.0072 47.7285 16.8066C47.4779 16.6061 47.1361 16.5059 46.7031 16.5059C46.416 16.5059 46.1517 16.5674 45.9102 16.6904C45.6686 16.8089 45.4613 16.9867 45.2881 17.2236C45.1149 17.4606 44.9805 17.75 44.8848 18.0918C44.7891 18.4336 44.7412 18.8278 44.7412 19.2744V19.5615C44.7412 19.9124 44.7891 20.2428 44.8848 20.5527C44.985 20.8581 45.1286 21.127 45.3154 21.3594C45.5068 21.5918 45.737 21.7741 46.0059 21.9062C46.2793 22.0384 46.5892 22.1045 46.9355 22.1045C47.3822 22.1045 47.7604 22.0133 48.0703 21.8311C48.3802 21.6488 48.6514 21.4049 48.8838 21.0996L49.6494 21.708C49.4899 21.9495 49.2871 22.1797 49.041 22.3984C48.7949 22.6172 48.4919 22.7949 48.1318 22.9316C47.7764 23.0684 47.3548 23.1367 46.8672 23.1367ZM52.0762 15.6035L53.6963 18.2969L55.3369 15.6035H56.8203L54.4004 19.2539L56.8955 23H55.4326L53.7236 20.2246L52.0146 23H50.5449L53.0332 19.2539L50.6201 15.6035H52.0762ZM61.2637 15.6035V16.5742H57.2646V15.6035H61.2637ZM58.6182 13.8057H59.8828V21.168C59.8828 21.4186 59.9215 21.6077 59.999 21.7354C60.0765 21.863 60.1768 21.9473 60.2998 21.9883C60.4229 22.0293 60.555 22.0498 60.6963 22.0498C60.8011 22.0498 60.9105 22.0407 61.0244 22.0225C61.1429 21.9997 61.2318 21.9814 61.291 21.9678L61.2979 23C61.1976 23.0319 61.0654 23.0615 60.9014 23.0889C60.7419 23.1208 60.5482 23.1367 60.3203 23.1367C60.0104 23.1367 59.7256 23.0752 59.4658 22.9521C59.2061 22.8291 58.9987 22.624 58.8438 22.3369C58.6934 22.0452 58.6182 21.6533 58.6182 21.1611V13.8057Z" fill="#050505"/>
</svg>
