<svg width="8" height="8" viewBox="0 0 8 8" fill="none" xmlns="http://www.w3.org/2000/svg">
<path d="M7.7131 0.287933C8.006 0.580827 8.006 1.0557 7.7131 1.34859L5.06145 4.00024L7.7131 6.65189C8.006 6.94479 8.006 7.41966 7.7131 7.71256C7.42021 8.00545 6.94534 8.00545 6.65244 7.71256L4.00079 5.0609L1.34914 7.71255C1.05625 8.00545 0.581376 8.00545 0.288483 7.71256C-0.00441053 7.41966 -0.00441072 6.94479 0.288482 6.65189L2.94013 4.00024L0.288482 1.34859C-0.00441072 1.0557 -0.00441053 0.580827 0.288483 0.287933C0.581376 -0.00496002 1.05625 -0.00495987 1.34914 0.287933L4.00079 2.93958L6.65244 0.287933C6.94534 -0.00496002 7.42021 -0.00496002 7.7131 0.287933Z" fill="#65676B"/>
</svg>
