<svg width="32" height="32" viewBox="0 0 32 32" fill="none" xmlns="http://www.w3.org/2000/svg">
<g clip-path="url(#clip0_694_822)">
<path fill-rule="evenodd" clip-rule="evenodd" d="M17.3292 14.3718V14.3251C17.3196 14.3408 17.3064 14.3564 17.2981 14.3718H17.3292Z" fill="#081117"/>
<path fill-rule="evenodd" clip-rule="evenodd" d="M0 0V32H32V0H0ZM9.9532 26.5848H5.20552V12.3011H9.9532V26.5848ZM7.57936 10.3515H7.54799C5.95538 10.3515 4.92308 9.25433 4.92308 7.8829C4.92308 6.48137 5.98555 5.41524 7.61044 5.41524C9.23569 5.41524 10.2344 6.48137 10.2655 7.8829C10.2655 9.25433 9.23569 10.3515 7.57936 10.3515ZM27.0769 26.5848H22.328V18.9429C22.328 17.0236 21.6418 15.7134 19.9231 15.7134C18.6104 15.7134 17.8304 16.5956 17.4868 17.4501C17.3619 17.7553 17.3292 18.1796 17.3292 18.6076V26.5848H12.5794C12.5794 26.5848 12.643 13.6411 12.5794 12.3012H17.3292V14.3252C17.9603 13.3541 19.0865 11.9658 21.6092 11.9658C24.7345 11.9658 27.0769 14.0068 27.0769 18.3938V26.5848Z" fill="#081117"/>
</g>
<defs>
<clipPath id="clip0_694_822">
<rect width="32" height="32" fill="white"/>
</clipPath>
</defs>
</svg>
