<svg width="32" height="32" viewBox="0 0 32 32" fill="none" xmlns="http://www.w3.org/2000/svg">
<g clip-path="url(#clip0_694_826)">
<rect width="32" height="32" fill="#081117"/>
<path d="M7.4 18.7C7.4 15.1 9.2 11.5 11.3 11.5C12.4 11.5 13.4 12.2 14.9 14.3C13.5 16.4 12.7 17.8 12.7 17.8C10.8 20.7 10.2 21.4 9.1 21.4C8 21.3 7.4 20.4 7.4 18.7ZM19.7 17.4L18.4 15.3C18.1 14.7 17.7 14.2 17.4 13.7C18.6 11.9 19.5 11 20.7 11C23.1 11 25 14.5 25 18.8C25 20.4 24.5 21.4 23.4 21.4C22.2 21.3 21.7 20.6 19.7 17.4ZM16.3 12.2C14.5 10 13.1 9.1 11.3 9.1C7.7 9.1 5 13.8 5 18.7C5 21.8 6.5 23.7 9 23.7C10.8 23.7 12.1 22.9 14.4 18.8C14.4 18.8 15.4 17.1 16 15.9C16.2 16.3 16.5 16.7 16.7 17.1L17.8 18.9C19.9 22.4 21.1 23.6 23.2 23.6C25.6 23.6 27 21.6 27 18.5C27 13.3 24.2 9 20.8 9C19 9.1 17.6 10.5 16.3 12.2Z" fill="white"/>
</g>
<defs>
<clipPath id="clip0_694_826">
<rect width="32" height="32" fill="white"/>
</clipPath>
</defs>
</svg>
