<svg width="32" height="32" viewBox="0 0 32 32" fill="none" xmlns="http://www.w3.org/2000/svg">
<g clip-path="url(#clip0_694_854)">
<path d="M15.6188 18.2438C14.4375 20.3438 13.175 22.0563 13.0813 22.1813C11.175 21.2813 9.75625 19.525 9.3125 17.4125C9.49375 17.4063 12.3438 17.3688 15.6188 18.2438Z" fill="black"/>
<path d="M16.475 15.95C16.5625 15.9812 16.6562 16.0062 16.7437 16.0312C16.575 16.4187 16.3875 16.8125 16.1875 17.1937C12.6687 16.1437 9.2937 16.2187 9.17495 16.2187C9.17495 16.15 9.1687 16.075 9.1687 16.0062C9.1687 14.25 9.8312 12.65 10.9187 11.4375V11.4437C10.9187 11.4437 12.7875 14.7562 16.475 15.95Z" fill="black"/>
<path d="M14.3624 22.6375C14.3562 22.6375 14.3499 22.6313 14.3374 22.6313C14.3562 22.6313 14.3624 22.6313 14.3624 22.6375C14.3624 22.6313 14.3624 22.6313 14.3624 22.6375Z" fill="black"/>
<path d="M20.5125 21.125C19.3062 22.1875 17.7312 22.8312 16 22.8312C15.4437 22.8312 14.9062 22.7625 14.3875 22.6375C14.4875 22.5 15.775 20.8 16.9437 18.65C19.5187 19.6187 20.4937 21.1 20.5125 21.125Z" fill="black"/>
<path d="M11.7437 10.6563C11.7124 10.6813 11.6812 10.7063 11.6499 10.7313C11.6874 10.7063 11.7187 10.675 11.7437 10.6563Z" fill="black"/>
<path d="M0 32V0H32V32H0ZM23.8375 14.3875C23.7312 13.875 23.575 13.3688 23.3687 12.8875C23.1687 12.4125 22.9188 11.9562 22.6313 11.525C22.3438 11.1 22.0187 10.7062 21.6562 10.3438C21.2938 9.98125 20.8938 9.65625 20.475 9.36875C20.05 9.08125 19.5875 8.83125 19.1187 8.63125C18.6375 8.425 18.1312 8.26875 17.6125 8.1625C17.0875 8.05625 16.5438 8 16 8C15.4563 8 14.9125 8.05625 14.3875 8.1625C13.875 8.26875 13.3687 8.425 12.8875 8.63125C12.4125 8.83125 11.9563 9.08125 11.5312 9.36875C11.1062 9.65625 10.7125 9.98125 10.35 10.3438C9.9875 10.7062 9.6625 11.1062 9.375 11.525C9.0875 11.95 8.8375 12.4125 8.6375 12.8875C8.43125 13.3688 8.275 13.875 8.16875 14.3875C8.0625 14.9125 8.00625 15.4562 8.00625 16C8.00625 16.5437 8.0625 17.0875 8.16875 17.6125C8.275 18.125 8.43125 18.6312 8.6375 19.1187C8.8375 19.5938 9.0875 20.05 9.375 20.475C9.6625 20.9 9.9875 21.2937 10.35 21.6562C10.7125 22.0188 11.1125 22.35 11.5312 22.6313C11.9563 22.9188 12.4187 23.1687 12.8875 23.3687C13.3687 23.575 13.875 23.7312 14.3875 23.8375C14.9125 23.9437 15.4563 24 16 24C16.5438 24 17.0812 23.9437 17.6125 23.8375C18.125 23.7312 18.6313 23.575 19.1187 23.3687C19.5938 23.1687 20.05 22.9188 20.475 22.6313C20.9 22.3438 21.2938 22.0188 21.6562 21.6562C22.0187 21.2937 22.3438 20.8938 22.6313 20.475C22.9188 20.05 23.1687 19.5938 23.3687 19.1187C23.575 18.6375 23.7312 18.1312 23.8375 17.6125C23.9438 17.0875 24 16.5437 24 16C24 15.4562 23.9438 14.9125 23.8375 14.3875Z" fill="black"/>
<path d="M17.4688 17.6375C17.625 17.3125 17.7813 16.9813 17.925 16.6438C17.975 16.525 18.025 16.4063 18.075 16.2938C20.425 16.5875 22.7375 16.0938 22.8312 16.0688C22.8125 17.6875 22.2375 19.175 21.275 20.3375C21.2625 20.3188 20.1687 18.7375 17.4688 17.6375Z" fill="black"/>
<path d="M17.1626 14.8813C13.1126 13.4688 11.8001 10.6125 11.8001 10.6125C11.8001 10.6125 11.7938 10.6188 11.7876 10.625C12.9501 9.71252 14.4126 9.16878 16.0001 9.16878C16.9438 9.16878 17.8501 9.36252 18.6688 9.71252C18.5688 10.3125 18.1688 12.4 17.2126 14.9C17.1938 14.8938 17.1751 14.8875 17.1626 14.8813Z" fill="black"/>
<path d="M18.4875 15.2125C19.3813 12.75 19.75 10.7438 19.8188 10.3313C21.35 11.3688 22.4438 13.0063 22.75 14.9125C22.6063 14.9625 20.6938 15.5688 18.4875 15.2125Z" fill="black"/>
</g>
<defs>
<clipPath id="clip0_694_854">
<rect width="32" height="32" fill="white" transform="matrix(1 0 0 -1 0 32)"/>
</clipPath>
</defs>
</svg>
